<?xml version="1.0" standalone="no"?>
<!DOCTYPE svg PUBLIC "-//W3C//DTD SVG 20010904//EN"
 "http://www.w3.org/TR/2001/REC-SVG-20010904/DTD/svg10.dtd">
<svg version="1.0" xmlns="http://www.w3.org/2000/svg"
 width="1080.000000pt" height="1080.000000pt" viewBox="0 0 1080.000000 1080.000000"
 preserveAspectRatio="xMidYMid meet">
<metadata>
Created by potrace 1.14, written by Peter Selinger 2001-2017
</metadata>
<g transform="translate(0.000000,1080.000000) scale(0.100000,-0.100000)"
fill="#000000" stroke="none">
<path d="M4107 7124 c-1 -1 -29 -5 -62 -8 -33 -4 -73 -9 -90 -11 -16 -3 -39
-7 -50 -9 -97 -14 -373 -121 -383 -147 -2 -5 -8 -9 -14 -9 -23 0 -162 -106
-243 -185 -85 -84 -225 -273 -225 -304 0 -6 -4 -11 -10 -11 -5 0 -10 -6 -10
-13 0 -7 -11 -36 -24 -63 -26 -55 -71 -196 -82 -259 -4 -22 -9 -49 -11 -60 -2
-11 -6 -66 -8 -122 -3 -56 -5 -105 -6 -110 -1 -4 -1 -373 0 -818 l1 -810 149
0 c82 0 153 3 156 7 7 6 7 356 2 618 l-2 85 970 0 970 0 0 -352 c0 -194 2
-354 5 -354 13 -3 256 -5 265 -2 10 3 12 1784 2 1858 -14 112 -71 286 -130
399 -73 140 -222 321 -332 401 -22 17 -42 33 -45 36 -3 3 -20 14 -37 24 -18
11 -33 23 -33 27 0 4 -6 8 -14 8 -7 0 -26 10 -42 23 -16 12 -31 21 -34 20 -3
-1 -27 9 -55 22 -67 33 -224 83 -283 91 -26 3 -51 8 -55 11 -4 3 -40 7 -80 9
-40 3 -91 6 -115 7 -24 2 -44 2 -45 1z m198 -359 c80 -10 178 -35 210 -54 6
-3 16 -6 23 -7 22 -4 113 -54 181 -100 63 -41 201 -169 201 -185 0 -4 6 -14
13 -21 41 -42 102 -153 136 -248 48 -133 54 -185 57 -490 2 -140 5 -292 8
-337 4 -71 3 -84 -12 -92 -16 -8 -424 -13 -1420 -15 -543 -2 -501 -8 -501 75
0 24 -4 67 -9 94 -9 56 -8 446 2 510 18 116 30 164 61 245 54 141 140 270 244
365 24 22 52 48 62 57 68 65 279 163 415 194 83 18 218 22 329 9z"/>
<path d="M9366 7122 c-2 -1 -30 -4 -62 -7 -32 -2 -69 -6 -80 -9 -12 -2 -37 -7
-55 -10 -110 -17 -357 -112 -397 -153 -7 -7 -18 -13 -23 -13 -6 0 -25 -11 -43
-25 -18 -14 -35 -25 -39 -25 -25 0 -287 -268 -287 -294 0 -4 -9 -16 -19 -28
-39 -42 -152 -279 -156 -328 0 -9 -4 -20 -7 -26 -4 -6 -9 -21 -12 -35 -3 -13
-10 -46 -16 -74 -5 -27 -13 -84 -16 -125 -4 -58 -9 -1700 -5 -1770 1 -13 23
-15 144 -14 78 1 148 2 156 3 11 1 12 63 10 354 l-4 352 970 0 970 0 0 -355 0
-354 137 -1 c87 -1 139 3 141 10 6 21 0 1801 -6 1844 -19 121 -57 248 -108
356 -37 80 -89 169 -100 173 -5 2 -9 10 -9 17 0 7 -3 15 -7 17 -5 2 -26 25
-48 53 -143 178 -345 319 -565 395 -97 33 -112 37 -174 45 -21 3 -42 8 -46 10
-13 8 -238 24 -244 17z m194 -356 c25 -3 55 -8 68 -11 12 -3 30 -7 40 -9 164
-38 351 -150 471 -283 67 -75 68 -76 93 -120 12 -21 25 -40 28 -43 20 -17 95
-216 106 -280 13 -74 16 -130 20 -375 2 -154 5 -308 7 -343 3 -50 0 -65 -12
-71 -30 -15 -1898 -21 -1910 -6 -27 34 -35 636 -10 730 5 17 10 43 13 59 8 42
47 158 63 182 7 11 11 23 8 26 -3 3 1 11 10 18 8 7 15 17 15 22 0 11 74 123
103 156 105 120 203 195 330 257 63 30 149 61 179 65 4 1 22 6 40 11 18 5 62
12 98 16 36 3 66 6 67 8 5 3 125 -3 173 -9z"/>
<path d="M6737 7024 c-1 -1 -31 -5 -67 -9 -110 -11 -131 -15 -219 -41 -297
-86 -528 -340 -568 -625 -8 -57 -8 -245 0 -286 29 -151 112 -281 236 -366 50
-34 175 -89 266 -117 68 -21 250 -70 280 -75 11 -2 41 -8 68 -14 26 -6 67 -15
91 -21 25 -5 93 -21 153 -35 59 -15 117 -29 128 -31 43 -11 50 -13 50 -14 0
-1 7 -3 15 -5 8 -1 47 -15 85 -29 242 -90 316 -184 318 -401 1 -74 -20 -155
-56 -213 -66 -111 -249 -207 -452 -239 -22 -4 -114 -7 -205 -7 -176 0 -240 10
-368 60 -203 78 -334 260 -358 494 -10 93 4 85 -151 83 -76 -1 -152 -2 -170
-2 l-31 -1 3 -82 c4 -77 6 -101 20 -167 13 -68 77 -230 102 -261 6 -8 33 -43
58 -77 125 -168 323 -280 598 -338 147 -31 489 -24 627 12 14 3 28 6 32 5 3
-1 30 7 60 17 29 10 58 19 63 21 6 1 20 6 33 11 13 5 28 9 33 9 14 0 180 85
225 115 61 41 152 135 189 195 59 98 92 213 101 345 1 28 4 52 5 55 1 3 1 8 1
11 -1 4 -4 40 -6 80 -3 41 -7 81 -9 89 -2 8 -7 31 -11 50 -22 96 -88 210 -167
289 -65 64 -181 130 -309 174 -77 26 -331 91 -408 103 -23 4 -45 11 -48 15 -3
5 -9 7 -13 4 -11 -6 -266 57 -411 102 -183 56 -253 104 -297 203 -46 101 -40
242 14 342 29 53 103 135 148 165 38 25 123 61 161 67 16 3 40 8 53 11 23 4
185 18 206 18 140 -5 333 -44 373 -76 6 -5 12 -6 12 -1 0 5 4 4 8 -1 4 -6 19
-16 34 -24 34 -17 118 -96 146 -137 30 -44 79 -170 87 -224 4 -25 8 -52 9 -60
2 -13 31 -15 176 -18 l173 -2 -6 87 c-7 92 -8 97 -27 178 -16 65 -81 201 -117
244 -52 64 -103 110 -163 151 -72 49 -219 122 -231 114 -5 -3 -9 0 -9 7 0 7
-3 9 -6 6 -4 -3 -15 -2 -26 4 -19 10 -31 13 -92 25 -16 2 -33 7 -37 9 -4 3
-27 7 -50 10 -24 3 -62 8 -84 11 -37 6 -262 13 -268 8z"/>
<path d="M1297 6974 c-1 -1 -24 -5 -52 -8 -164 -21 -295 -61 -434 -133 -74
-39 -212 -130 -257 -170 -17 -16 -46 -42 -65 -58 -61 -54 -156 -168 -212 -255
-45 -70 -131 -230 -138 -258 -1 -4 -5 -17 -10 -30 -5 -12 -11 -33 -13 -46 -2
-14 -9 -34 -16 -45 -6 -12 -9 -21 -6 -21 2 0 0 -16 -6 -36 -52 -189 -51 -465
1 -661 70 -258 197 -477 393 -675 26 -26 51 -48 54 -48 4 0 16 -11 28 -24 25
-28 159 -121 236 -164 58 -33 189 -89 224 -97 12 -2 48 -12 81 -21 85 -23 91
-24 180 -31 435 -34 817 96 1105 375 49 49 90 93 90 99 0 6 6 13 13 16 17 6
161 217 150 218 -4 0 -113 1 -242 1 l-235 0 -46 -48 c-162 -168 -321 -252
-570 -300 -66 -13 -233 -5 -320 15 -101 22 -197 56 -217 77 -8 7 -19 14 -24
14 -10 0 -92 51 -139 86 -53 41 -174 172 -217 236 -83 126 -145 272 -169 403
-4 22 -7 48 -8 58 0 9 -3 17 -6 17 -8 0 -5 294 3 307 4 6 9 28 12 49 15 97 80
248 157 363 88 130 250 271 388 338 44 22 167 70 183 71 4 0 33 6 65 13 82 17
292 15 378 -3 77 -18 234 -76 234 -88 0 -4 11 -11 25 -14 14 -4 25 -11 25 -16
0 -6 5 -10 12 -10 18 0 107 -71 190 -154 68 -66 83 -76 115 -77 21 -1 42 -1
47 0 7 2 120 1 216 0 62 -1 156 4 163 8 5 3 5 8 0 12 -5 3 -21 27 -36 52 -81
142 -212 286 -354 393 -136 102 -364 206 -503 230 -8 1 -22 5 -30 8 -8 4 -37
10 -65 14 -27 4 -59 9 -70 10 -22 4 -304 11 -308 8z"/>
<path d="M32 3792 c-21 -3 -23 -8 -20 -55 l3 -52 5390 -1 5390 -1 0 54 1 53
-36 0 c-232 3 -10711 4 -10728 2z"/>
</g>
</svg>
