<svg width="20" height="20" viewBox="0 0 25 25" fill="none" xmlns="http://www.w3.org/2000/svg">
<path d="M24.644 22.946C24.7554 23.0575 24.8439 23.1898 24.9042 23.3355C24.9645 23.4812 24.9956 23.6373 24.9956 23.7949C24.9956 23.9526 24.9645 24.1087 24.9042 24.2544C24.8439 24.4001 24.7554 24.5324 24.644 24.6439C24.5325 24.7554 24.4001 24.8438 24.2545 24.9042C24.1088 24.9645 23.9527 24.9955 23.795 24.9955C23.6373 24.9955 23.4812 24.9645 23.3356 24.9042C23.1899 24.8438 23.0575 24.7554 22.9461 24.6439L12.9956 14.6919L3.04516 24.6439C2.82 24.8691 2.51462 24.9955 2.19621 24.9955C1.87779 24.9955 1.57241 24.8691 1.34725 24.6439C1.1221 24.4187 0.995605 24.1134 0.995605 23.7949C0.995605 23.4765 1.1221 23.1711 1.34725 22.946L11.2992 12.9955L1.34725 3.0451C1.1221 2.81994 0.995605 2.51456 0.995605 2.19614C0.995605 1.87773 1.1221 1.57235 1.34725 1.34719C1.57241 1.12204 1.87779 0.995544 2.19621 0.995544C2.51462 0.995544 2.82 1.12204 3.04516 1.34719L12.9956 11.2991L22.9461 1.34719C23.1712 1.12204 23.4766 0.995544 23.795 0.995544C24.1134 0.995544 24.4188 1.12204 24.644 1.34719C24.8691 1.57235 24.9956 1.87773 24.9956 2.19614C24.9956 2.51456 24.8691 2.81994 24.644 3.0451L14.692 12.9955L24.644 22.946Z" fill="white"/>
</svg>
