<svg width="103" height="126" viewBox="0 0 103 126" fill="none" xmlns="http://www.w3.org/2000/svg">
<path d="M31 52.5C31 47.0631 33.1598 41.8488 37.0043 38.0043C40.8488 34.1598 46.0631 32 51.5 32C56.9369 32 62.1512 34.1598 65.9957 38.0043C69.8402 41.8488 72 47.0631 72 52.5C72 57.9369 69.8402 63.1512 65.9957 66.9957C62.1512 70.8402 56.9369 73 51.5 73C46.0631 73 40.8488 70.8402 37.0043 66.9957C33.1598 63.1512 31 57.9369 31 52.5Z" fill="white"/>
<path fill-rule="evenodd" clip-rule="evenodd" d="M0.183464 46.0892C1.21832 33.5287 6.93106 21.8171 16.1877 13.2792C25.4443 4.74125 37.568 0.00121584 50.1522 0H52.8472C65.4314 0.00121584 77.5551 4.74125 86.8117 13.2792C96.0684 21.8171 101.781 33.5287 102.816 46.0892C103.972 60.1121 99.649 74.037 90.7573 84.9311L60.8572 121.555C59.7239 122.944 58.2964 124.064 56.678 124.832C55.0597 125.601 53.2909 126 51.4997 126C49.7085 126 47.9398 125.601 46.3214 124.832C44.703 124.064 43.2756 122.944 42.1423 121.555L12.2483 84.9311C3.35443 74.0379 -0.970898 60.1129 0.183464 46.0892ZM51.4997 23.4288C43.6408 23.4288 36.1038 26.5555 30.5468 32.1209C24.9897 37.6863 21.8678 45.2347 21.8678 53.1054C21.8678 60.9761 24.9897 68.5244 30.5468 74.0898C36.1038 79.6553 43.6408 82.7819 51.4997 82.7819C59.3586 82.7819 66.8956 79.6553 72.4526 74.0898C78.0097 68.5244 81.1316 60.9761 81.1316 53.1054C81.1316 45.2347 78.0097 37.6863 72.4526 32.1209C66.8956 26.5555 59.3586 23.4288 51.4997 23.4288Z" fill="white"/>
</svg>
