<svg width="22" height="22" viewBox="0 0 22 22" fill="none" xmlns="http://www.w3.org/2000/svg">
<path d="M0.247704 20.5563L5.53783 15.2672C4.00454 13.4264 3.23996 11.0653 3.40315 8.67513C3.56634 6.28495 4.64473 4.0497 6.41398 2.43436C8.18324 0.819025 10.5072 -0.0520274 12.9023 0.00240578C15.2974 0.0568389 17.5793 1.03257 19.2734 2.72661C20.9674 4.42066 21.9432 6.7026 21.9976 9.09772C22.052 11.4928 21.181 13.8168 19.5656 15.586C17.9503 17.3553 15.715 18.4337 13.3249 18.5969C10.9347 18.76 8.5736 17.9955 6.73279 16.4622L1.44371 21.7523C1.36518 21.8308 1.27195 21.8931 1.16935 21.9356C1.06674 21.9781 0.956768 22 0.845709 22C0.73465 22 0.624676 21.9781 0.52207 21.9356C0.419464 21.8931 0.326235 21.8308 0.247704 21.7523C0.169172 21.6738 0.106878 21.5805 0.0643768 21.4779C0.0218773 21.3753 0 21.2654 0 21.1543C0 21.0432 0.0218773 20.9333 0.0643768 20.8307C0.106878 20.728 0.169172 20.6348 0.247704 20.5563ZM20.2862 9.32097C20.2862 7.81642 19.84 6.34565 19.0041 5.09467C18.1683 3.84368 16.9802 2.86865 15.5902 2.29289C14.2001 1.71712 12.6706 1.56647 11.195 1.86C9.71932 2.15352 8.36385 2.87803 7.29998 3.94191C6.2361 5.00578 5.51159 6.36125 5.21807 7.83689C4.92454 9.31253 5.07519 10.8421 5.65096 12.2321C6.22672 13.6221 7.20175 14.8102 8.45273 15.6461C9.70372 16.482 11.1745 16.9281 12.679 16.9281C14.6959 16.9259 16.6295 16.1237 18.0556 14.6976C19.4818 13.2714 20.2839 11.3378 20.2862 9.32097Z" fill="#FFFFFF"/>
</svg>
