<svg width="143" height="143" viewBox="0 0 143 143" fill="none" xmlns="http://www.w3.org/2000/svg">
<path d="M4.49727 74.6315L30.4801 86.0037L105.358 45.1587L60.1963 97.8425L124.928 127.315C126.035 127.8 127.242 128.011 128.448 127.931C129.654 127.85 130.823 127.481 131.855 126.853C132.888 126.226 133.755 125.359 134.382 124.326C135.009 123.293 135.378 122.124 135.458 120.918L142.985 8.02416C143.068 6.71748 142.811 5.41149 142.236 4.2347C141.662 3.05791 140.792 2.05088 139.71 1.3127C138.628 0.574517 137.373 0.130629 136.068 0.0247149C134.763 -0.0811996 133.453 0.154508 132.266 0.708645L4.3091 60.9187C3.00386 61.5379 1.90394 62.5189 1.14016 63.7451C0.376385 64.9713 -0.019111 66.3911 0.000710116 67.8355C0.0205312 69.2799 0.454834 70.6883 1.25197 71.8931C2.0491 73.0978 3.17553 74.0483 4.49727 74.6315ZM45.1425 143L81.0909 125.569L45.1425 108.801V143Z" fill="white"/>
</svg>
