<svg id="visual" viewBox="0 0 960 540" width="960" height="540" xmlns="http://www.w3.org/2000/svg" xmlns:xlink="http://www.w3.org/1999/xlink" version="1.1"><g><g transform="translate(618 82)"><path d="M0 -12.8L12.8 0L0 12.8L-12.8 0Z" fill="none" stroke="#676767" stroke-width="1"></path></g><g transform="translate(133 199)"><path d="M0 -6L6 0L0 6L-6 0Z" fill="none" stroke="#676767" stroke-width="1"></path></g><g transform="translate(847 245)"><path d="M0 -10L10 0L0 10L-10 0Z" fill="none" stroke="#676767" stroke-width="1"></path></g><g transform="translate(130 388)"><path d="M0 -8L8 0L0 8L-8 0Z" fill="none" stroke="#676767" stroke-width="1"></path></g><g transform="translate(153 353)"><path d="M0 -6L6 0L0 6L-6 0Z" fill="none" stroke="#676767" stroke-width="1"></path></g><g transform="translate(79 471)"><path d="M0 -9L9 0L0 9L-9 0Z" fill="none" stroke="#676767" stroke-width="1"></path></g><g transform="translate(287 70)"><path d="M0 -10L10 0L0 10L-10 0Z" fill="none" stroke="#676767" stroke-width="1"></path></g><g transform="translate(451 53)"><path d="M0 -11L11 0L0 11L-11 0Z" fill="none" stroke="#676767" stroke-width="1"></path></g><g transform="translate(182 414)"><path d="M0 -7L7 0L0 7L-7 0Z" fill="none" stroke="#676767" stroke-width="1"></path></g><g transform="translate(236 45)"><path d="M0 -7L7 0L0 7L-7 0Z" fill="none" stroke="#676767" stroke-width="1"></path></g><g transform="translate(859 196)"><path d="M0 -6L6 0L0 6L-6 0Z" fill="none" stroke="#676767" stroke-width="1"></path></g><g transform="translate(297 407)"><path d="M0 -10L10 0L0 10L-10 0Z" fill="none" stroke="#676767" stroke-width="1"></path></g><g transform="translate(781 525)"><path d="M0 -10L10 0L0 10L-10 0Z" fill="none" stroke="#676767" stroke-width="1"></path></g><g transform="translate(576 499)"><path d="M0 -7L7 0L0 7L-7 0Z" fill="none" stroke="#676767" stroke-width="1"></path></g><g transform="translate(508 272)"><path d="M0 -6L6 0L0 6L-6 0Z" fill="none" stroke="#676767" stroke-width="1"></path></g><g transform="translate(942 411)"><path d="M0 -6L6 0L0 6L-6 0Z" fill="none" stroke="#676767" stroke-width="1"></path></g><g transform="translate(326 59)"><path d="M0 -9L9 0L0 9L-9 0Z" fill="none" stroke="#676767" stroke-width="1"></path></g><g transform="translate(189 92)"><path d="M0 -7L7 0L0 7L-7 0Z" fill="none" stroke="#676767" stroke-width="1"></path></g><g transform="translate(747 431)"><path d="M0 -6L6 0L0 6L-6 0Z" fill="none" stroke="#676767" stroke-width="1"></path></g><g transform="translate(452 494)"><path d="M0 -6L6 0L0 6L-6 0Z" fill="none" stroke="#676767" stroke-width="1"></path></g><g transform="translate(632 499)"><path d="M0 -11L11 0L0 11L-11 0Z" fill="none" stroke="#676767" stroke-width="1"></path></g><g transform="translate(539 479)"><path d="M0 -6L6 0L0 6L-6 0Z" fill="none" stroke="#676767" stroke-width="1"></path></g><g transform="translate(825 464)"><path d="M0 -11L11 0L0 11L-11 0Z" fill="none" stroke="#676767" stroke-width="1"></path></g><g transform="translate(518 95)"><path d="M0 -10L10 0L0 10L-10 0Z" fill="none" stroke="#676767" stroke-width="1"></path></g><g transform="translate(369 523)"><path d="M0 -9L9 0L0 9L-9 0Z" fill="none" stroke="#676767" stroke-width="1"></path></g><g transform="translate(912 499)"><path d="M0 -9L9 0L0 9L-9 0Z" fill="none" stroke="#676767" stroke-width="1"></path></g><g transform="translate(37 350)"><path d="M0 -10L10 0L0 10L-10 0Z" fill="none" stroke="#676767" stroke-width="1"></path></g><g transform="translate(325 527)"><path d="M0 -6L6 0L0 6L-6 0Z" fill="none" stroke="#676767" stroke-width="1"></path></g><g transform="translate(267 20)"><path d="M0 -7L7 0L0 7L-7 0Z" fill="none" stroke="#676767" stroke-width="1"></path></g><g transform="translate(390 362)"><path d="M0 -9L9 0L0 9L-9 0Z" fill="none" stroke="#676767" stroke-width="1"></path></g><g transform="translate(764 195)"><path d="M0 -7L7 0L0 7L-7 0Z" fill="none" stroke="#676767" stroke-width="1"></path></g><g transform="translate(550 225)"><path d="M0 -9L9 0L0 9L-9 0Z" fill="none" stroke="#676767" stroke-width="1"></path></g><g transform="translate(194 179)"><path d="M0 -6L6 0L0 6L-6 0Z" fill="none" stroke="#676767" stroke-width="1"></path></g><g transform="translate(934 196)"><path d="M0 -6L6 0L0 6L-6 0Z" fill="none" stroke="#676767" stroke-width="1"></path></g><g transform="translate(694 203)"><path d="M0 -8L8 0L0 8L-8 0Z" fill="none" stroke="#676767" stroke-width="1"></path></g><g transform="translate(582 246)"><path d="M0 -6L6 0L0 6L-6 0Z" fill="none" stroke="#676767" stroke-width="1"></path></g><g transform="translate(48 116)"><path d="M0 -7L7 0L0 7L-7 0Z" fill="none" stroke="#676767" stroke-width="1"></path></g><g transform="translate(199 271)"><path d="M0 -9L9 0L0 9L-9 0Z" fill="none" stroke="#676767" stroke-width="1"></path></g><g transform="translate(359 237)"><path d="M0 -9L9 0L0 9L-9 0Z" fill="none" stroke="#676767" stroke-width="1"></path></g><g transform="translate(666 197)"><path d="M0 -7L7 0L0 7L-7 0Z" fill="none" stroke="#676767" stroke-width="1"></path></g><g transform="translate(103 196)"><path d="M0 -10L10 0L0 10L-10 0Z" fill="none" stroke="#676767" stroke-width="1"></path></g><g transform="translate(766 412)"><path d="M0 -9L9 0L0 9L-9 0Z" fill="none" stroke="#676767" stroke-width="1"></path></g><g transform="translate(176 13)"><path d="M0 -8L8 0L0 8L-8 0Z" fill="none" stroke="#676767" stroke-width="1"></path></g><g transform="translate(442 522)"><path d="M0 -9L9 0L0 9L-9 0Z" fill="none" stroke="#676767" stroke-width="1"></path></g><g transform="translate(351 149)"><path d="M0 -10L10 0L0 10L-10 0Z" fill="none" stroke="#676767" stroke-width="1"></path></g><g transform="translate(893 131)"><path d="M0 -7L7 0L0 7L-7 0Z" fill="none" stroke="#676767" stroke-width="1"></path></g><g transform="translate(294 145)"><path d="M0 -10L10 0L0 10L-10 0Z" fill="none" stroke="#676767" stroke-width="1"></path></g><g transform="translate(833 419)"><path d="M0 -9L9 0L0 9L-9 0Z" fill="none" stroke="#676767" stroke-width="1"></path></g><g transform="translate(135 87)"><path d="M0 -6L6 0L0 6L-6 0Z" fill="none" stroke="#676767" stroke-width="1"></path></g><g transform="translate(923 342)"><path d="M0 -10L10 0L0 10L-10 0Z" fill="none" stroke="#676767" stroke-width="1"></path></g><g transform="translate(237 142)"><path d="M0 -10L10 0L0 10L-10 0Z" fill="none" stroke="#676767" stroke-width="1"></path></g><g transform="translate(779 382)"><path d="M0 -6L6 0L0 6L-6 0Z" fill="none" stroke="#676767" stroke-width="1"></path></g><g transform="translate(415 62)"><path d="M0 -9L9 0L0 9L-9 0Z" fill="none" stroke="#676767" stroke-width="1"></path></g><g transform="translate(661 31)"><path d="M0 -10L10 0L0 10L-10 0Z" fill="none" stroke="#676767" stroke-width="1"></path></g><g transform="translate(470 450)"><path d="M0 -9L9 0L0 9L-9 0Z" fill="none" stroke="#676767" stroke-width="1"></path></g><g transform="translate(173 143)"><path d="M0 -7L7 0L0 7L-7 0Z" fill="none" stroke="#676767" stroke-width="1"></path></g><g transform="translate(476 139)"><path d="M0 -7L7 0L0 7L-7 0Z" fill="none" stroke="#676767" stroke-width="1"></path></g><g transform="translate(598 388)"><path d="M0 -9L9 0L0 9L-9 0Z" fill="none" stroke="#676767" stroke-width="1"></path></g><g transform="translate(443 161)"><path d="M0 -11L11 0L0 11L-11 0Z" fill="none" stroke="#676767" stroke-width="1"></path></g><g transform="translate(335 90)"><path d="M0 -10L10 0L0 10L-10 0Z" fill="none" stroke="#676767" stroke-width="1"></path></g><g transform="translate(17 132)"><path d="M0 -9L9 0L0 9L-9 0Z" fill="none" stroke="#676767" stroke-width="1"></path></g><g transform="translate(867 479)"><path d="M0 -7L7 0L0 7L-7 0Z" fill="none" stroke="#676767" stroke-width="1"></path></g><g transform="translate(220 322)"><path d="M0 -11L11 0L0 11L-11 0Z" fill="none" stroke="#676767" stroke-width="1"></path></g><g transform="translate(52 500)"><path d="M0 -8L8 0L0 8L-8 0Z" fill="none" stroke="#676767" stroke-width="1"></path></g><g transform="translate(548 383)"><path d="M0 -7L7 0L0 7L-7 0Z" fill="none" stroke="#676767" stroke-width="1"></path></g><g transform="translate(43 176)"><path d="M0 -10L10 0L0 10L-10 0Z" fill="none" stroke="#676767" stroke-width="1"></path></g><g transform="translate(934 145)"><path d="M0 -9L9 0L0 9L-9 0Z" fill="none" stroke="#676767" stroke-width="1"></path></g><g transform="translate(177 57)"><path d="M0 -11L11 0L0 11L-11 0Z" fill="none" stroke="#676767" stroke-width="1"></path></g><g transform="translate(557 411)"><path d="M0 -8L8 0L0 8L-8 0Z" fill="none" stroke="#676767" stroke-width="1"></path></g></g></svg>